<svg version="1.1" id="bbd2572f-7b08-4c5d-b64e-2e695104dd4a" xmlns="http://www.w3.org/2000/svg" x="0" y="0" viewBox="0 0 1041.3 733.5" xml:space="preserve"><style>.st0{opacity:.2;fill:#faa41a;enable-background:new}.st1{fill:#f2f2f2}.st3{fill:#3f3d56}.st4{opacity:.1;enable-background:new}.st5{fill:#faa41a}.st7{fill:#fbbebe}.st8{fill:#565171}</style><path class="st0" d="M357.9 428.4c1.1-2.2 2.9-3.9 4.3-5.8-.2.2-.4.3-.7.5-1.1.5-2.1 1.1-3 1.9-.5.8-.9 1.6-1.1 2.5l-2.5 9.9c.5-.6 1-1.2 1.5-1.9 0-2.3.5-4.8 1.5-7.1z"/><path class="st1" d="M598.7 435.1c-.2 1.1-.5 2.2-1 3.2 0 4.2-.5 8.4-1.7 12.4-.5 1.7-.8 3.4-1 5.2-2.4 16.1-4.6 33-.6 48.6.3-.9.8-1.8 1.5-2.5 2.7-3.3 3.7-7.5 4.5-11.7 4.2-21.8 3-44.1 2-66.3-.6-.7-1.4-1.2-2.2-1.6 0 1 0 1.9-.1 2.9-.3 3.3-.8 6.6-1.4 9.8z"/><path class="st0" d="M458.4 428.5c0-1.3-.3-2.5-.8-3.7-.5-1-1.2-1.9-1.9-2.7l-2.2-2.5c-1.1 26.1-3.4 52.3 1.4 77.9.8 4.1 1.8 8.4 4.5 11.7.7.7 1.2 1.6 1.5 2.5 4-15.6 1.8-32.5-.6-48.6-.2-1.8-.6-3.5-1-5.2-1.8-6.6-2.2-13.4-1.2-20.2.5-3.1.6-6.1.3-9.2zm12.4-55.2c2.9 4.8 4.7 10.4 6.3 15.8l.7 2.3c-.3-7.9-.5-15.8-.5-23.7-1.6 1.4-3.1 2.8-4.7 4.1l-1.8 1.5z"/><path class="st1" d="M494.1 639.9c.4-5.5 0-11.1-1.3-16.5-.9-3.4-2.2-6.8-2.4-10.3 0-2.4.3-4.7.9-7 4.1-20.9 5.9-42.9-.3-63.3-1.7-5.5-3.9-10.7-5.6-16.2-.8 2-1.7 4-2.8 5.9-.5-1.8-1.7-3.2-3.4-4 0 1 0 1.9-.1 2.9-.3 3.3-.8 6.5-1.4 9.7-.2 1.3-.6 2.5-1.2 3.6-.8 1.1-1.9 2.1-3.2 2.7.6 1.3 1.2 2.6 1.7 3.9l-4.2 1.3c2.7 6 .5 12.8-1 19.2-5.2 22.2-.5 45.9-3 68.3l27.3-.2z"/><path class="st0" d="M478.9 322.4c1.1-2.2 2.8-3.9 4.3-5.8-.2.2-.4.3-.7.5-1.1.5-2.1 1.1-3 1.9-.5.8-.9 1.6-1.1 2.5l-2.5 9.9c.5-.6 1-1.2 1.5-1.9 0-2.3.5-4.8 1.5-7.1z"/><path class="st1" d="M579.4 322.5c0-1.3-.3-2.5-.8-3.7-.5-1-1.2-1.9-1.9-2.7l-2.2-2.5c-1.1 25.7-3.4 51.5 1.2 76.7.8-2.7 1.6-5.4 2.4-8.2 1.2-4.5 2.8-8.9 4.8-13.1-.5-4-1.1-8.1-1.6-12-.2-1.8-.6-3.5-1.1-5.2-1.8-6.6-2.2-13.4-1.2-20.1.6-3 .7-6.1.4-9.2zm-43.6 196.6l-3.4 120.5 9-.1c-1.6-14.7-2.3-29.4-2.2-44.2 0-4.3.2-8.6-.7-12.8-.6-2.9-1.7-5.7-2.3-8.7-.6-3.5-.8-7.1-.7-10.7l.3-44zm-77.3 0c.1-.3.3-.7.4-1 .5-1.2.9-2.5 1.3-3.7l-.1.1c-.8 1.3-1.7 2.5-2.5 3.8.3.3.6.5.9.8z"/><path class="st0" d="M186.4 384.5c0-1.3-.3-2.5-.8-3.7-.5-1-1.2-1.9-1.9-2.7l-2.2-2.5c-1.1 26.1-3.4 52.3 1.4 77.9.8 4.1 1.8 8.4 4.5 11.7.7.7 1.2 1.6 1.5 2.5 4-15.6 1.8-32.5-.6-48.6-.2-1.8-.5-3.5-1-5.2-1.8-6.6-2.2-13.4-1.2-20.1.5-3.2.6-6.2.3-9.3zm-43.6 196.6l-1.8 62.7 4.3-.1c-.6-2.7-1.6-5.2-2.1-7.9-.6-3.5-.8-7.1-.7-10.7l.3-44zm64.3 60.4c-1.3-.6-2.4-1.5-3.2-2.7-.6-1.1-1.1-2.4-1.2-3.7-.6-3.2-1.1-6.5-1.4-9.7-.1-1-.1-1.9-.1-2.9-1.7.8-2.9 2.2-3.4 4-2.9-5.2-4.8-10.8-5.6-16.7-.3 1-.6 2.1-1 3.1-2.1 6.2-5.1 12.2-5.7 18.7-.3 3.9.1 7.9 1 11.7l19.9-.2c.3-.6.5-1.1.7-1.6zm156.3-12.3c-1.4-6-2.4-12-2.9-18.1-1.6-14.7-3.2-29.3-4.8-44 0-.4-.1-.8-.1-1.2-.1.2-.1.4-.2.6-1.2 3.5-3.6 6.5-6 9.5s-5.4 5.9-8.9 5.1c-1.4-.5-2.7-1.3-3.8-2.3l-8-6.9c-1.6-1.4-3.1-2.7-4.7-4.1-.1 9.7-.3 19.3-.8 28.9-.2 3-.4 6.2-1.9 8.9 3 9.2 4.6 18.7 4.9 28.3.1 2.6 0 5.2-.1 7.8l23.4-.3h.1l17.6-.2c-1.2-3.9-2.7-7.9-3.8-12z"/><path class="st1" d="M323.8 529.7c.5.6 1 1.2 1.5 1.9l-2.5-9.9c-.2-.9-.5-1.8-1.1-2.5-.9-.8-1.9-1.4-3-1.9-.2-.2-.5-.3-.7-.5 1.5 1.9 3.3 3.6 4.3 5.8 1 2.1 1.5 4.6 1.5 7.1zm29-43.9c.6 7 1 13.9 1.4 20.9.4 7 .7 13.8 1.1 20.6.8-5.3 2.1-10.6 3.7-15.7-1.4-2.7-1.7-5.8-1.9-8.9-.5-9.6-.7-19.3-.8-28.9-1.5 1.4-3.1 2.7-4.6 4 .5 2.6.9 5.3 1.1 8z"/><path class="st0" d="M220 557c-2.4 16.1-4.6 33-.6 48.6.3-.9.8-1.8 1.5-2.5 2.7-3.3 3.7-7.5 4.5-11.7 4.9-25.6 2.5-51.8 1.4-77.9l-2.1 2.5c-.8.8-1.5 1.7-2 2.7-.5 1.2-.8 2.5-.8 3.8-.2 3.1-.1 6.1.3 9.2 1 6.7.6 13.5-1.2 20.1-.5 1.7-.8 3.4-1 5.2z"/><path class="st1" d="M581.6 639l7.8-.1c-4.2-24.1 1.8-49.9-3.8-74-.9-3.8-2-7.7-2.3-11.5-2 5.3-4.3 10.5-4.8 16.2-.9 9.7 3.7 19 5.4 28.7 2.3 13.3-.8 26.8-2.2 40.2-.1.1-.1.3-.1.5z"/><path class="st0" d="M851.1 626.9c-9.1-27.1 0-57.2-6.6-85-1.5-6.4-3.8-13.3-1-19.2l-4.2-1.3c.6-1.3 1.2-2.6 1.7-3.9-.8-.4-1.6-.9-2.2-1.5l-3.1 28.2c-.5 6.1-1.5 12.2-2.9 18.1-1.7 6.7-4.5 13-6.5 19.5-5.4 17.6-4.8 36.3-1.9 54.6l30-.3c-1-3.1-2.2-6.1-3.3-9.2z"/><path class="st1" d="M736.1 447.4c.4 1.2.8 2.5 1.3 3.7.1.3.3.7.4 1 .3-.3.6-.5.9-.8-.9-1.2-1.8-2.5-2.5-3.8l-.1-.1z"/><path class="st0" d="M859.4 467.5c3.1-16.1 3.3-32.5 2.7-48.9a6.84 6.84 0 0 1-5.5 1.6h-.2c-.2 2.6-.7 5.2-1.5 7.7-.5 1.7-.8 3.4-1 5.2-2.4 16.1-4.6 33-.6 48.6.3-.9.8-1.8 1.5-2.5 2.7-3.3 3.8-7.6 4.6-11.7z"/><path class="st1" d="M414.7 640.8c0-5.2 0-10.5.1-15.7-.2 5.2-.3 10.5-.4 15.7h.3z"/><path d="M1037.9 207c-.7-3.8-1.5-7.5-2.4-11.1-9.7-39.2-32.4-70.5-74-87.5-3.6-1.5-7.3-2.8-11.1-4-8.8-2.8-17.7-4.9-26.8-6.4-87.2-14.6-160.6-7.6-226.7 5.5-3.7.7-7.4 1.5-11.1 2.3-92.7 19.6-171.6 49.9-255.9 47.3-3.7-.1-7.4-.3-11.1-.5-36.7-2.4-74.6-11.4-115.2-30.6-48-22.6-96.7-15-140.7 11.9-24.8 15.2-48.1 36.5-68.9 62l-.1.1c-2.9 3.6-5.8 7.3-8.6 11-67.6 89.8-105.2 224.2-74.4 328.4 1.1 3.8 2.3 7.5 3.6 11.1 8.9 25.4 22.1 48.7 40.3 68.9 10.5 11.7 24.1 20.2 39.1 24.8 2.6.8 5.2 1.5 7.9 2 .8-12.7-.1-25.3-3.8-37.4-2-6.6-4.8-12.9-6.6-19.5-1.4-6-2.4-12-2.9-18.1-1.6-14.7-3.2-29.3-4.8-44-1-9-2-18.1-1.7-27.2.3-9.6 1.9-19.2 4.9-28.3-1.4-2.7-1.7-5.8-1.9-8.9-.5-9.6-.7-19.3-.8-28.9-1.6 1.4-3.1 2.8-4.7 4.1l-8 7c-1.1 1.1-2.4 1.9-3.8 2.3-3.5.9-6.6-2.3-8.9-5.1s-4.8-5.9-6-9.5c-.9-3.3-1.3-6.7-1.1-10.2.1-4.4.3-8.8.5-13.1l1.9-36.6c.4-7 .7-13.9 1.4-20.9.4-5 1.1-10.1 3.7-14.4 4.8-8 15.2-10.8 24.6-10.1-.5-.9-.5-2-.1-3 .6-.9 1.4-1.6 2.4-2l13.9-7.6c1-.6 2.1-1 3.3-1.1.6 0 1.2.1 1.8.4l2.7-1.9c.6-.5 1.3-.8 2-1.1.9-.2 1.9-.2 2.7.1.7-1.4 1.1-2.8 1.1-4.3-.1-1.9-.5-3.7-1.2-5.5-6.5-4.9-10.4-12.6-10.4-20.7-3-1.7-6.9-2.6-8.1-6.2-.8-2.4.2-5.1-.2-7.6-.7-.7-1.2-1.5-1.5-2.3-.9-2.5.3-5.3-.2-7.9-.3-1.4-1-2.8-.7-4.2.3-1 .8-1.9 1.6-2.7l9.8-11.6c2.2-2.6 4.4-5.2 7.4-6.7 7.1-3.7 15.7 0 23.7 0 2.7 0 5.5-.4 8 .5 1.8.7 3.5 1.8 4.9 3.1l11 9c3.7 3 7.7 6.6 8.1 11.3.1 1.4-.1 2.9-.6 4.2 1.3 1.6 2.1 3.6 2.3 5.7.2 3.3-1.4 6.5-3.2 9.2-2.8 4.1-6.1 7.8-10 10.8-.9 4.7-3.1 9.2-6.3 12.7.7 3.5 1.7 6.9 2.8 10.3 0 .1.1.1.1.2.9.1 1.8.4 2.6.9.8.6 1.5 1.3 2.2 2 .3-.5.9-1 1.5-1.2 1.5-.6 3.1.1 4.6.7 4.4 2 8.9 4.1 12.5 7.3 1.3 1.2 2.4 2.6 3.3 4.1 5-.7 10.1.5 14.4 3.3 7.6 5.2 10.7 14.6 13.3 23.4 2 6.6 3.9 13.1 5.9 19.7 2.6 8.6 5.2 17.3 5.8 26.3.5 8.2-.6 16.4-1.7 24.5-1.5 11.2 2.1 23.5 2.1 34.9 0 2.9 0 5.9-.1 8.8 4.1-2.5 8.9-3.5 13.6-2.9.9-1.5 2-2.9 3.3-4.1 3.6-3.2 8.1-5.3 12.5-7.3 1.5-.7 3.1-1.3 4.6-.7.6.2 1.1.7 1.5 1.2.6-.7 1.4-1.4 2.2-2 .8-.5 1.7-.9 2.6-.9 0-.1 0-.1.1-.2 1.2-3.4 2.1-6.8 2.8-10.3-3.2-3.6-5.4-8-6.3-12.7-3.9-3.1-7.2-6.7-10-10.8-1.8-2.8-3.4-5.9-3.2-9.2.2-2.1 1-4 2.3-5.7-.5-1.4-.7-2.8-.6-4.2.4-4.8 4.4-8.3 8-11.3l11-9c1.4-1.3 3.1-2.4 4.9-3.1 2.5-.9 5.3-.5 8-.5 8 0 16.6-3.6 23.7 0 3 1.5 5.2 4.2 7.4 6.7l10 11.6c.7.7 1.3 1.7 1.6 2.7.3 1.4-.5 2.8-.7 4.2-.5 2.6.7 5.4-.2 7.9-.3.9-.8 1.7-1.5 2.3-.3 2.5.6 5.2-.2 7.6-1.2 3.5-5.1 4.5-8.1 6.2-.1 8.2-4 15.8-10.5 20.7-.7 1.7-1.1 3.6-1.2 5.5.1 1.5.5 3 1.1 4.3.9-.3 1.8-.4 2.7-.1.7.2 1.4.6 2 1.1l2.7 1.9c.6-.3 1.2-.4 1.8-.4 1.2.1 2.3.5 3.3 1.2l13.9 7.4c.6.3 1.2.7 1.7 1.1.1-2.7.2-5.4.4-8.1l1.9-36.6c.4-7 .7-13.9 1.4-20.9.5-5 1.1-10.1 3.7-14.4 4.8-8 15.2-10.8 24.6-10.1-.5-.9-.5-2-.1-3 .6-.9 1.4-1.6 2.4-2l13.6-7.5c1-.6 2.1-1 3.3-1.1.6 0 1.2.1 1.8.4l2.7-1.9c.6-.5 1.3-.8 2-1.1.9-.2 1.9-.2 2.7.1.7-1.4 1.1-2.8 1.1-4.3-.1-1.9-.5-3.7-1.2-5.5-6.5-4.9-10.4-12.6-10.5-20.7-3-1.7-6.9-2.6-8.1-6.2-.8-2.4.2-5.1-.2-7.6-.7-.7-1.2-1.5-1.5-2.3-.9-2.5.3-5.3-.2-7.9-.3-1.1-.6-2.3-.8-3.4-1.1 2.1-1.9 4.2-2.5 6.5-1.4 5.7-1.2 11.6-2 17.4-.3 2-.9 4.1-2.6 5.2-1.3.8-3 .8-4.4 1.3-2.4 1-3.7 3.6-4 6.1s.1 5.1.1 7.7c0 6.7-3.2 13.6-9 16.9-7.7 4.3-17.2 1.5-25.5-1.5 3.7-1.3 7-3.6 9.5-6.6l-9.2-1.8c5.3-2.5 10.2-5.7 14.6-9.6 1.6-1.3 2.9-3 3.7-4.9 1-2.8.1-6 1-8.8 1.5-4.8 7.4-6.6 10.4-10.7 2.6-3.5 2.7-8.3 2.7-12.7V281c0-4.8.3-10.4 4.2-13.3 4.3-3.3 10.4-1.4 15.8-1.5 5.7 0 11.1-2.4 16.8-3 5.3-.6 14.2 3.1 14.1 7.4 3 .5 6 .8 9 .9 2.7 0 5.5-.4 8 .5 1.8.7 3.5 1.8 4.9 3.1l11 9c3.7 3 7.7 6.6 8 11.3.1 1.4-.1 2.9-.6 4.2 1.3 1.6 2.1 3.6 2.3 5.7.2 3.3-1.3 6.5-3.2 9.2-2.8 4.1-6.1 7.8-10 10.8-.9 4.7-3.1 9.2-6.3 12.7.7 3.5 1.7 6.9 2.8 10.3 0 .1.1.1.1.2.9.1 1.8.4 2.6.9.8.6 1.5 1.3 2.2 2 .3-.5.9-1 1.5-1.2 1.5-.6 3.1.1 4.6.7 3.9 1.6 7.6 3.7 11 6.1v-.6c.1-4.4.3-8.8.5-13.1l1.9-36.6c.4-7 .7-13.9 1.3-20.9.5-5 1.1-10.1 3.7-14.4 4.8-8 15.2-10.8 24.6-10.1-.5-.9-.5-2-.1-3 .6-.9 1.4-1.6 2.4-2l14-7.6c1-.6 2.1-1 3.3-1.1.6 0 1.2.1 1.8.4l2.7-1.9c.6-.5 1.3-.8 2-1.1.9-.2 1.9-.2 2.7.1.7-1.4 1.1-2.8 1.2-4.3-.1-1.9-.5-3.7-1.2-5.5-6.5-4.9-10.4-12.6-10.5-20.7-3-1.7-6.9-2.6-8.1-6.2-.8-2.4.2-5.1-.2-7.6-.7-.7-1.2-1.5-1.5-2.3-.9-2.5.3-5.3-.2-7.9-.3-1.4-1-2.8-.7-4.2.3-1 .8-1.9 1.6-2.7l9.8-11.6c2.2-2.6 4.4-5.2 7.4-6.7 7.1-3.7 15.7 0 23.7 0 2.7 0 5.5-.4 8 .4 1.8.7 3.5 1.8 4.9 3.1l11 9c3.7 3 7.7 6.6 8 11.3.1 1.4-.1 2.9-.6 4.2 1.3 1.6 2.1 3.6 2.3 5.7.2 3.3-1.3 6.5-3.2 9.2-2.8 4.1-6.1 7.8-10 10.8-.9 4.7-3.1 9.2-6.3 12.7.7 3.5 1.7 6.9 2.8 10.3 0 .1.1.1.1.2.9.1 1.8.4 2.6.9.8.6 1.5 1.3 2.2 2 .3-.5.9-1 1.5-1.2 1.5-.6 3.1.1 4.6.7 4.4 2 8.9 4.1 12.5 7.3 1.3 1.2 2.4 2.6 3.3 4.1 5-.7 10.1.5 14.3 3.3 7.6 5.2 10.7 14.6 13.3 23.4 2 6.6 3.9 13.1 5.9 19.7 2.6 8.6 5.2 17.3 5.8 26.3.5 7.6-.4 15.3-1.5 22.9.2-.3.5-.5.8-.8 3.6-3.2 8.1-5.3 12.5-7.3 1.4-.7 3.1-1.3 4.6-.7.6.2 1.1.7 1.5 1.2.6-.7 1.4-1.4 2.2-2 .8-.5 1.7-.9 2.6-.9 0-.1 0-.1.1-.2 1.2-3.4 2.1-6.8 2.8-10.3-3.2-3.6-5.4-8-6.3-12.7-3.9-3.1-7.2-6.7-10-10.8-1.8-2.8-3.4-5.9-3.2-9.2.2-2.1 1-4 2.3-5.7-.5-1.4-.7-2.8-.6-4.2.4-4.8 4.3-8.3 8-11.3l11-9c1.4-1.3 3.1-2.4 4.9-3.1 2.5-.9 5.3-.5 8-.5 3-.1 6-.4 9-.9-.2-4.2 8.8-8 14.1-7.4 5.7.6 11.1 3 16.8 3 5.4 0 11.5-1.8 15.8 1.5 3.8 2.9 4.2 8.5 4.2 13.3v16.8c0 4.4.1 9.2 2.7 12.7 2.9 3.9 8.3 5.7 10.2 10 2.3-5.8 5.3-11.2 10.4-14.7 4.2-2.8 9.3-4 14.3-3.3.9-1.5 2-2.9 3.3-4.1 3.6-3.2 8.1-5.3 12.5-7.3 1.4-.7 3.1-1.3 4.6-.7.6.2 1.1.7 1.5 1.2.6-.7 1.4-1.4 2.2-2 .8-.5 1.7-.9 2.6-.9 0-.1 0-.1.1-.2 1.2-3.4 2.1-6.8 2.8-10.3-3.2-3.6-5.4-8-6.3-12.7-3.9-3.1-7.2-6.7-10-10.8-1.8-2.8-3.4-5.9-3.2-9.2.2-2.1 1-4 2.3-5.7-.5-1.4-.7-2.8-.6-4.2.4-4.8 4.3-8.3 8-11.3l11-9c1.4-1.3 3.1-2.4 4.9-3.1 2.5-.9 5.3-.5 8-.5 3-.1 6-.4 9-.9-.2-4.2 8.8-8 14.1-7.4 5.7.6 11.1 3 16.8 3 5.4 0 11.5-1.8 15.8 1.5 3.8 2.9 4.2 8.5 4.2 13.3v16.8c0 4.4.1 9.2 2.7 12.7 3 4 8.9 5.9 10.4 10.7.9 2.8 0 6 1 8.8.9 2 2.2 3.7 4 5 2.2 2 4.6 3.9 7.2 5.5.4-1.3 1.1-2.6 1.9-3.7-.5-1.4-.7-2.8-.6-4.2.4-4.8 4.3-8.3 8-11.3l11-9c1.4-1.3 3.1-2.4 4.9-3.1 2.5-.9 5.3-.5 8-.5 8 0 16.6-3.6 23.7 0 3 1.5 5.2 4.2 7.4 6.7l9.8 11.6c.7.7 1.3 1.7 1.6 2.7.3 1.4-.4 2.8-.7 4.2-.5 2.6.7 5.4-.2 7.9-.3.9-.8 1.7-1.5 2.3-.3 2.5.7 5.2-.2 7.6-1.2 3.5-5.1 4.5-8.1 6.2-.1 8.2-4 15.8-10.4 20.7-.7 1.7-1.1 3.6-1.2 5.5.1 1.5.5 3 1.2 4.3.9-.3 1.8-.4 2.7-.1.7.2 1.4.6 2 1.1l2.7 1.9c.6-.3 1.2-.4 1.8-.4 1.2.1 2.3.5 3.3 1.1l13.9 7.4c1 .4 1.8 1.1 2.4 2 .4 1 .4 2.1-.1 3 9.4-.7 19.8 2.1 24.6 10.1 2.6 4.3 3.2 9.4 3.7 14.4.6 7 1 13.9 1.3 20.9l1.9 36.6c.2 4.4.4 8.8.5 13.2.2 3.4-.1 6.9-1.1 10.2-1.2 3.5-3.6 6.5-6 9.5s-5.4 5.9-8.9 5.1c-1.4-.5-2.7-1.3-3.8-2.3l-8.1-6.9c-1.6-1.4-3.2-2.7-4.7-4.1-.1 9.7-.3 19.3-.8 28.9-.2 3-.4 6.2-1.8 8.9 3 9.2 4.6 18.7 4.9 28.3.1 7.9-.4 15.7-1.3 23.5.8-1.8 1.7-3.6 2.5-5.4 42.7-93.1 92.9-226.9 75.8-321.2z" opacity=".1" fill="#faa41a"/><path class="st0" d="M85.6 383.6l-2.6 9.9c.5-.6 1-1.2 1.5-1.9 0-2.5.4-4.9 1.4-7.2 1.1-2.2 2.9-3.9 4.3-5.8-.2.2-.4.3-.7.5-1.1.5-2.1 1.1-3 1.9-.4.9-.8 1.7-.9 2.6z"/><path class="st1" d="M595.1 507.4c.4 1.2.8 2.5 1.3 3.7.1.3.3.7.4 1 .3-.3.6-.5.9-.8-.9-1.2-1.8-2.5-2.5-3.8l-.1-.1z"/><path class="st0" d="M681.4 313.7c-.1 8.2-4 15.8-10.4 20.7-.7 1.7-1.1 3.6-1.2 5.5.1 1.5.5 3 1.2 4.3.9-.3 1.8-.4 2.7-.1.7.2 1.4.6 2 1.1l2.7 1.9c.6-.3 1.2-.4 1.8-.4 1.2.1 2.3.5 3.3 1.1l13.9 7.4c1 .4 1.8 1.1 2.4 2 .4 1 .4 2.1-.1 3 3-.2 6-.1 8.9.4 1.1-5.6 2.5-11.1 4.2-16.5-3.3-3.8-5.1-8.7-5.1-13.7 0-2.6.4-5.1.1-7.7-.3-2.6-1.7-5.2-4-6.1-1.4-.6-3.1-.5-4.4-1.3-1.7-1.1-2.3-3.2-2.6-5.2-.9-5.8-.6-11.7-2-17.4-.6-2.3-1.4-4.4-2.5-6.5-.2 1.2-.4 2.3-.8 3.4-.5 2.6.7 5.4-.2 7.9-.3.9-.8 1.7-1.5 2.3-.3 2.5.7 5.2-.2 7.6-1.4 3.6-5.2 4.6-8.2 6.3zm54.5 82.3c-2.4 16.1-4.6 33-.6 48.6.3-.9.8-1.8 1.5-2.5 2.7-3.3 3.7-7.5 4.5-11.7 4.9-25.6 2.5-51.8 1.4-77.9l-2.1 2.5c-.8.8-1.5 1.7-2 2.7-.5 1.2-.8 2.5-.8 3.8-.2 3.1-.1 6.1.3 9.2 1 6.7.6 13.5-1.2 20.1-.4 1.7-.7 3.4-1 5.2zm-15.2 82.8c-1.4 1.2-3.3 1.7-5.1 1.3-1.4-.5-2.7-1.3-3.8-2.3l-8-6.9c-1.6-1.4-3.2-2.7-4.7-4.1-.1 9.7-.3 19.3-.8 28.9-.2 3-.4 6.2-1.8 8.9 3 9.2 4.6 18.7 4.9 28.3.2 9.1-.7 18.2-1.7 27.2-1.6 14.7-3.2 29.3-4.8 44-.5 6.1-1.5 12.2-2.9 18.1-1.4 5.3-3.5 10.4-5.2 15.6l10.2-.1 13-.1h1.6l22-.2v-.1c1.7-9.6 6.3-19 5.4-28.7-.6-6.5-3.6-12.5-5.7-18.7-9.1-27.1 0-57.2-6.6-85-1.5-6.4-3.8-13.3-1-19.2l-4.2-1.3c.6-1.3 1.2-2.6 1.7-3.9-.9-.5-1.7-1.1-2.5-1.7z"/><path class="st1" d="M640.5 618c0 6.8.1 13.5.1 20.3h.4l-.5-20.3z"/><path class="st0" d="M781.5 558.1l.3 44.1c.1 3.6-.1 7.1-.7 10.7-.6 2.9-1.7 5.7-2.3 8.7-.9 4.2-.8 8.5-.7 12.8v2.6l5.7-.1c-.8-26.4-1.6-52.6-2.3-78.8zm40.9-304.4c-.1 8.2-4 15.8-10.4 20.7-.7 1.7-1.1 3.6-1.2 5.5.1 1.5.5 3 1.2 4.3.9-.3 1.8-.4 2.7-.1.7.2 1.4.6 2 1.1l2.7 1.9c.6-.3 1.2-.4 1.8-.4 1.2.1 2.3.5 3.3 1.1l13.9 7.4c1 .4 1.8 1.1 2.4 2 .4 1 .4 2.1-.1 3 9.4-.7 19.8 2.1 24.6 10.1 2.6 4.3 3.2 9.4 3.7 14.4.1.9.2 1.8.2 2.7 3.4-2.8 7.5-4.7 11.6-6.6 1.4-.7 3.1-1.3 4.6-.7.6.2 1.1.7 1.5 1.2.6-.7 1.4-1.4 2.2-2 .8-.5 1.7-.9 2.6-.9 0-.1 0-.1.1-.2 1.2-3.4 2.1-6.8 2.8-10.3-3.2-3.6-5.4-8-6.3-12.7-3-2.4-5.8-5.2-8.1-8.3-7.5 2.4-15.6 4.1-22.3.4-5.8-3.3-9-10.2-9-16.9 0-2.6.4-5.1.1-7.7-.3-2.6-1.7-5.2-4-6.1-1.4-.6-3.1-.5-4.4-1.3-1.7-1.1-2.3-3.2-2.6-5.2-.9-5.8-.6-11.7-2-17.4-.6-2.3-1.4-4.4-2.5-6.5-.2 1.2-.4 2.3-.8 3.4-.5 2.6.7 5.4-.2 7.9-.3.9-.8 1.7-1.5 2.3-.3 2.5.7 5.2-.2 7.6-1.6 3.6-5.4 4.6-8.4 6.3z"/><path class="st3" d="M253.4 435.8h551.4c10.4 0 18.9 8.5 18.9 18.9V521H234.5v-66.3c0-10.4 8.4-18.9 18.9-18.9z"/><path class="st4" d="M253.4 435.8h551.4c10.4 0 18.9 8.5 18.9 18.9V521H234.5v-66.3c0-10.4 8.4-18.9 18.9-18.9z"/><path class="st3" d="M703.8 513.1v123.7l-23.8.3h-1.7l-21.1.2h-.7l-14.8.2-26.9.3-88.5.9-12.4.2-24.4.2h-1.1l-20.8.3-57.5.6-13.6.1-42.1.5V513.1z"/><path class="st4" d="M703.8 513.1v123.7l-23.8.3h-1.7l-21.1.2h-.7l-14.8.2-26.9.3-88.5.9-12.4.2-24.4.2h-1.1l-20.8.3-57.5.6-13.6.1-42.1.5V513.1z"/><path class="st3" d="M234.5 512.5h589.2V527c0 10.8-8.7 19.5-19.5 19.5h-549c-11.4 0-20.7-9.3-20.7-20.7v-13.3z"/><ellipse class="st5" cx="412.8" cy="520.4" rx="42" ry="9.1"/><path d="M409.4 521.4l-.8-43.5c-.2-9.7.2-20.7 7.4-27.2 4.6-4.1 11.4-5.9 14.3-11.3 1.6-3 1.6-6.5 1.6-9.8 0-19.7 0-39.5-.1-59.2" fill="none" stroke="#faa41a" stroke-width="6" stroke-miterlimit="10"/><path class="st5" d="M428.7 351.8h3.5c4.4 0 8 3.6 8 8v21.7c0 4.4-3.6 8-8 8h-3.5c-4.4 0-8-3.6-8-8v-21.7c0-4.4 3.6-8 8-8z"/><path class="st7" d="M585.4 452.4c-6.4-7.5-13.2-14.5-20.1-21.6l-13.9-14.4-12.6-13-60.5-62.8c-7.4-7.6-15.1-15.5-25-19.3s-22.8-2.1-28.8 6.7c-2 2.8-2.9 6.2-2.3 9.6.7 3.2 3 5.9 5.5 8.1 11.8 10.8 27.7 15.5 41.8 23.1 4.7 2.4 9.1 5.5 12.8 9.2 3.1 3.5 5.8 7.3 8 11.4l35.4 59c2.2 3.9 4.7 7.5 7.5 11 2.3 2.7 4.8 5 7.2 7.6 5.7 6 10.1 13.1 15.5 19.3 7.5 8.7 16.9 15.6 26.1 22.5 1.9 1.4 4 2.9 6.3 3 3.1.2 5.8-2 8.1-4.1 3.8-3.3 11.5-8.2 13.6-12.8 1.8-4.1-1.4-8.3-3.3-11.9-5.9-10.9-13.1-21.2-21.3-30.6z"/><path class="st3" d="M614.8 637.8l-88.5 1-12.4.1-24.4.3h-1.1l-20.8.2c1.8-6 4.2-11.9 7-17.5 1.8-3.5 4-6.9 6.4-10 4.5.4 8.9.8 13.4 1.1 10.3.8 20.7 1.5 31 2.2 26.2 1.7 52.3 3.2 78.5 5.5 1.8.2 3.7.4 5 1.5.8.8 1.4 1.7 1.8 2.8 1.9 4.1 3.3 8.4 4.1 12.8z"/><path class="st7" d="M553.3 395.7c22.8-7.3 33.7-11.4 54-24.1-4.4.7 2-4.6-2.4-5.2s-8.9-2.8-11.2-6.7c-1.5-2.5-1.9-5.5-2.3-8.4l-2.2-15.8c.3 1.9-41.3 2.1-41.6 13.8-.2 6.1 4.2 13.1 5.3 19.2 1.8 9 1.9 18.2.4 27.2z"/><path class="st4" d="M553.3 395.7c22.8-7.3 33.7-11.4 54-24.1-4.4.7 2-4.6-2.4-5.2s-8.9-2.8-11.2-6.7c-1.5-2.5-1.9-5.5-2.3-8.4l-2.2-15.8c.3 1.9-41.3 2.1-41.6 13.8-.2 6.1 4.2 13.1 5.3 19.2 1.8 9 1.9 18.2.4 27.2z"/><path class="st8" d="M646.7 538.7c0 2.6 0 5.3-.1 7.9-.5 11.3-2.3 22.6-3.4 33.8-1.9 19-1.8 38-1.5 57.1l-26.9.3-88.5 1-12.4.1-24.4.3c-.2-.5-.5-1.1-.8-1.6v-.1c-3.2-6.2-9.1-10.6-14.1-15.6-2.4-2.3-4.5-4.9-6.2-7.7 11-18.9 21.1-38.7 28.3-59.3 1-2.8 1.9-5.5 3-8.2.7-1.9 1.6-3.7 2.5-5.4 1.8-3.1 4-5.9 5.3-9.2 1-2.9 1.5-6 1.5-9.1 0-.6.1-1.2.1-1.9.1-2.7.2-5.3.2-7.9v-.6c0-3.2-.1-6.3-.3-9.5-.5-7.1-1.4-14.2-.6-21.3 1.6-13.3 9.5-24.8 15.1-37 .5-1.2 1.1-2.3 1.5-3.5.8-1.8 1.4-3.6 2.1-5.5 3.8-10.7 6.6-21.9 13.5-30.6.6-.7 1.2-1.5 1.9-2.2 2.9-3.1 6.4-5.8 8.2-9.7 1.7-3.9 2.2-8.8-1.9-9.8 1.9-1.4 3.8-2.7 5.5-3.9 13.5-9.3 22.1-13.6 40-17.5.4-.1.8-.2 1.2-.2 1.1-.3 2.3-.3 3.5 0 1.2.4 2.3 1 3.3 1.7 10.8 7.6 21 13.5 25.5 25.9 1.6 4.3 6.5 11.3 7.3 15.8 1.8 10.7 6.4 20.4 9.6 30.4 2 5.9 3.1 12.2 3.1 18.4-.2 17.5-3.7 35-3.2 52.5l.3 5.7v.6c.2 2.6.4 5.3.7 7.9.4 6.1 1.1 12 1.1 17.9z"/><path class="st7" d="M564.8 494.9v.4c-.2 3.7-.4 7.4-.8 11.1 0 .6-.1 1.3-.2 2-.1 1.4-.3 2.8-.5 4.2 0 .2 0 .4-.1.6-.3 2.7-.7 5.3-1.2 7.9-.5 2.6-1.1 5.4-1.9 8-1.7 5.9-4.1 11.7-6 17.5-.6 2-1.2 4-1.7 6-.8 3.4-1.4 6.8-2.4 10.2-1.4 4.2-3.1 8.3-5.2 12.3l-19.5 40.1c-3.5 7.3-7.1 14.5-10.6 21.8l-.9 1.8-24.4.3h-1.1c.1-.5.2-1.1.4-1.6 1.9-8.2 3.8-16.4 5.7-24.5s3.7-16.2 5.5-24.2c1.3-5.9 2.7-11.8 4.1-17.7l4.5-19.5 1.2-5.1c1.8-7.9 3.7-15.8 6-23.5.2-.7.4-1.3.6-2 .8-2.7 1.7-5.3 2.6-7.9.1-.2.1-.4.2-.6 2.2-6.4 4.8-12.7 7.8-18.8.1-.2.1-.3.2-.4.1-.1 0 0 0 0 .8-1.7 1.7-3.3 2.6-5 2-3.6 3.7-8.6 8.2-9.3 4-.6 9.9 1.6 14.6 3.2 1.3.5 2.5.8 3.5 1.1 3 .8 6.3 1.9 7.8 4.6 1.3 2.1 1.2 4.6 1 7z"/><path class="st4" d="M541.8 411.9c-5 5.1-7.9 11.9-10.1 18.7-6.3 19.7-8 40.7-4.9 61.2.3 2.2.9 4.7 2.7 5.9 2.1 1.4 5.1.7 7-1s2.8-4.2 3.8-6.5c1.6 3.9 3.3 7.9 6.4 10.8 6.3 6 16.5 5.7 23.8 10.5 10.1-20.7 19-41.9 26.6-63.7 1.3-3.3 2.2-6.8 2.4-10.3 0-3.2-.6-6.4-1.8-9.3-4-10.4-13.3-18.4-24-21.5-10.1-3.2-24-2.8-31.9 5.2z"/><path class="st8" d="M540.7 409.4c-5 5.1-7.9 11.9-10.1 18.7-6.3 19.8-8 40.7-4.9 61.2.3 2.2.9 4.7 2.7 5.9 2.1 1.4 5.1.7 7-1s2.8-4.2 3.8-6.5c1.6 3.9 3.3 7.9 6.4 10.8 6.3 6 16.5 5.7 23.8 10.4 10.1-20.7 19-41.9 26.6-63.7 1.3-3.3 2.2-6.8 2.5-10.3 0-3.2-.6-6.4-1.8-9.3-4-10.4-13.3-18.4-24-21.5-10.4-3-24.2-2.6-32 5.3z"/><circle class="st7" cx="560.7" cy="319" r="42.6"/><path class="st3" d="M518.2 299.8c2.7-3.1 6.4-5.2 10.5-5.8-.4 4.3 3.3 8 7.3 9.8 3.9 1.8 8.4 2.4 12.3 4.3 6.9 3.4 12.2 11 19.9 11.2 2.7.1 6-.5 7.5 1.7.6 1 .9 2.1.9 3.2l.7 8.1c2.1 1.2 4.8-.2 7.2-.8 5.2-1.2 10.4 2 11.6 7.3.5 2.1.3 4.3-.6 6.3 10.8 1.5 20.7-5.9 22.3-16.7.3-2.3.2-4.6-.2-6.8-.5-1.6-.8-3.3-.8-5 .3-3.9 4-6.4 6.1-9.6 2.9-4.5 2.7-10.5.8-15.5-2-5-5.4-9.2-8.8-13.4l-12.1-14.7c-5.6-6.8-12.2-14.1-21-14.6-6.2-.3-12.1 3-18.2 3.6-9 .9-18.5-4-26.8-.6-6 2.4-9.6 8.4-12.7 14-2.7 4.7-5.3 9.4-6.5 14.7-1.8 8.5.8 17.5-.2 26.1l.8-6.8z"/><path d="M26.9 574.8c2-1.3 4-2.5 5.9-3.7.9-.6 1.8-1.1 2.7-1.8 4.3-2.9 8.3-6.2 11.9-9.8.3-.2.5-.5.8-.8l.2-.2c2-1.8 3.6-4 4.8-6.4 1.6-3.5 1.5-7.5 1.4-11.4-.2-8.2-.6-16.3-1-24.5-.2-3.2-.4-6.3-.6-9.5l-.3-4.5" fill="none" stroke="#3f3d56" stroke-width="4" stroke-miterlimit="10"/><path class="st5" d="M67.2 501.5c-.2-4.8-2.9-9.1-7-11.5l-3.1 6.2.1-7.5c-7.4-2.2-15.2 2-17.4 9.4s2 15.2 9.4 17.4 15.2-2 17.4-9.4c.4-1.5.6-3 .6-4.6zm-24.4 83.7l-6.6 5.3c-3.1-4.7-5.9-9.4-8.6-14.3.4-.1.9-.1 1.3-.1 6.2-.3 11.8 3.4 13.9 9.1zm.9 4.9c0 2.2-.5 4.4-1.6 6.4-.2.5-.5 1-.8 1.4l-.9-1.3c-1.2-1.7-2.3-3.3-3.4-5l6.7-1.5zm-8.5-20.8c-7.7.4-14.3-5.5-14.8-13.2-.4-6.6 3.9-12.6 10.3-14.3l-.1 5.8 3.2-6.3c7.7-.4 14.3 5.6 14.7 13.3v.1c.1 1.6-.1 3.2-.6 4.8-1.7 5.5-6.8 9.5-12.7 9.8zm34.1-22.7c-7.7.3-14.2-5.7-14.5-13.5-.3-7.7 5.7-14.2 13.5-14.5 2.5-.1 5 .5 7.3 1.7l-2.5 6.8 5.1-4.9c2.7 2.5 4.4 6 4.5 9.7.1 1.3-.1 2.6-.4 3.9-1.4 6.1-6.8 10.5-13 10.8z"/><path class="st4" d="M65.3 505.2c-3.2.4-6.4 1.4-9.6 1.6s-6.8-.6-8.9-3.1c-1.1-1.4-1.7-3.1-2.6-4.6-.9-1.4-2.1-2.5-3.5-3.3-3.3 7-.4 15.3 6.6 18.7 7 3.3 15.3.4 18.7-6.6.4-.9.8-1.8 1-2.8-.7.1-1.2.1-1.7.1zm4 41.4c-7.7.4-14.3-5.6-14.7-13.3-.1-2.3.3-4.6 1.3-6.7 1.1.7 2.1 1.7 2.8 2.8 1 1.5 1.6 3.2 2.8 4.6 2.2 2.6 5.9 3.4 9.3 3.2s6.7-1.1 10-1.4c.5 0 .9-.1 1.4-.1-1.4 6.2-6.7 10.6-12.9 10.9zm-34.1 22.7c-7.7.4-14.3-5.6-14.7-13.3-.1-2.2.3-4.5 1.2-6.5 1.2.8 2.2 1.7 3 2.8 1.1 1.5 1.8 3.3 3 4.7 2.4 2.6 6.3 3.6 9.9 3.5s6.8-.9 10.3-1.2c-1.7 5.7-6.8 9.7-12.7 10z"/><path class="st5" d="M42.1 596.5c-.2.5-.5 1-.8 1.4l-.9-1.3 1.7-.1z"/></svg>