<svg version="1.1" id="af8363df-f336-47a7-a0a7-f658d27a6b25" xmlns="http://www.w3.org/2000/svg" x="0" y="0" viewBox="0 0 1124.7 795.1" xml:space="preserve"><style>.st1{opacity:.5;fill:#dee3f3;enable-background:new}.st6{fill:#faa41a}.st7,.st8{opacity:.1;enable-background:new}.st8{opacity:.3}.st9{fill:#dee3f3}.st10{fill:none;stroke:#fc6681;stroke-width:2;stroke-miterlimit:10}.st11{fill:#fc6681}.st12{fill:none;stroke:#ffd037;stroke-width:2;stroke-miterlimit:10}.st13{fill:#ffd037}.st14{fill:#a8a8a8}.st15{opacity:.2;enable-background:new}.st17{fill:#f7c4a7}.st18{fill:#535461}.st19{fill:#575988}.st20{fill:#e14b5a}.st21{fill:#632652}.st23{fill:none;stroke:#535461;stroke-width:3;stroke-miterlimit:10}.st28{fill:#6a5c99}.st29{fill:#d6d6e3}</style><path d="M1060.8 449.6c-37.7 47.9-23 117.8.9 173.9 8 18.8 17.1 38.6 13.7 58.7-4.1 24.6-26.1 42.6-49.1 52.1-42 17.4-92.3 13.2-130.9-10.8-33.4-20.8-57.3-54.5-91.2-74.3-56.8-33.2-129.1-20.6-190.7 2.2-43.6 16.2-91.3 37.2-134.7 20.3-30.5-11.9-51.6-40.8-63.1-71.5-5.5-14.8-9.6-30.8-20.2-42.5-6.3-7-14.5-11.9-22.9-16.1-76.9-38.1-174-17.7-248.6-60C73.5 453 41.3 399.1 27 343s-12.6-115-9-172.9c2.6-41.1 7.2-85 33.5-116.7 27.8-33.6 75.5-46 118.6-39.7s82.2 29.1 116.5 55.9c43 33.5 82.8 75.1 135.5 88.7 35.9 9.2 73.7 4.2 110.7 2.4 61.9-2.9 123.9 3.6 185.4 10.7 59 6.8 118.3 14.3 174.5 33.5 39.7 13.6 71.6 38.2 109.1 55.4 24.5 11.2 51.1 14.3 74.3 28.6 28.5 17.6 54.7 48.2 47.4 84-7 34.2-42.7 51.2-62.7 76.7z" opacity=".1" fill="#faa41a"/><path class="st1" d="M624 441.1c-3.4 3.4-4.2 8.1-5.4 12.5-3.5 12.4-11.6 23.9-23 32.3-8.3 6.2-19.5 13-17.5 22.2.5 2.2 1.7 4.3 2 6.5 1.4 9.6-13.3 14.7-19 23.1-4.2 6.3-3.1 14-1.8 21.2 1.5 8.7 3.4 18 10.6 24.5 1.9 1.7 4.2 3.2 5.6 5.3 3 4.7.4 10.8 3.1 15.6 3.7 6.4 15.2 6.7 21.9 2.4s9.8-11.4 12.8-18.1c8-18 17.9-36.1 34.5-49.2 16-12.6 39.2-22.3 42-40.6 1.2-7.8-1.8-16.5 2.8-23.4 2.2-3.3 5.7-5.7 8.2-8.8 7.2-9.3 1.8-22.8-8.8-29.4-16.1-9.9-54-10.1-68 3.9z"/><ellipse class="st1" cx="817.4" cy="403" rx="155" ry="26"/><linearGradient id="SVGID_1_" gradientUnits="userSpaceOnUse" x1="806.245" y1="475.24" x2="806.245" y2="502.44" gradientTransform="matrix(1 0 0 -1 0 796.319)"><stop offset="0" stop-color="gray" stop-opacity=".25"/><stop offset=".54" stop-color="gray" stop-opacity=".12"/><stop offset="1" stop-color="gray" stop-opacity=".1"/></linearGradient><path fill="url(#SVGID_1_)" d="M841.8 302.2h11.5v-8.3h-94.1v8.3h11.5v8.4h-18.9v10.5h108.9v-10.5h-18.9z"/><linearGradient id="SVGID_2_" gradientUnits="userSpaceOnUse" x1="843.91" y1="386.829" x2="843.91" y2="668.084" gradientTransform="matrix(1 0 0 -1 -37.66 730.949)"><stop offset="0" stop-color="gray" stop-opacity=".25"/><stop offset=".54" stop-color="gray" stop-opacity=".12"/><stop offset="1" stop-color="gray" stop-opacity=".1"/></linearGradient><path d="M918.9 309.9c.8-9.8.6-19.6-.6-29.3-1-8.2-3.3-16.3-6.7-23.8-6.1-12.7-14.7-19.6-22.3-23.3-5.1-2.6-10.6-4.1-16.3-4.4-.6-4-4.3-6.8-8.3-6.2-3.2.5-5.7 3-6.2 6.2v-18.9h-39.8v-10.5h53.5c3.3 0 6.1-2.7 6.1-6.1v-54.9c0-3.3-2.7-6.1-6.1-6.1H852V78.7c2.9-1.3 4.8-4.2 4.8-7.4v-.4c-.2-4.5-3.9-8-8.5-7.9-4.3.1-7.7 3.6-7.9 7.9v.4c0 3 1.7 5.8 4.3 7.2v54.3h-75.4V78.4c2.7-1.4 4.3-4.2 4.3-7.2v-.4c-.2-4.5-3.9-8-8.5-7.9-4.3.1-7.7 3.6-7.9 7.9v.4c0 3.2 1.9 6.1 4.8 7.4v54.1h-22.1c-3.3 0-6.1 2.7-6.1 6.1v54.8c0 3.3 2.7 6.1 6.1 6.1h53.6v10.5h-39.8v15.4c-.3-1-.9-1.9-1.6-2.6l-.2-.2c-2.9-2.9-7.5-2.9-10.4 0-1.4 1.4-2.2 3.2-2.1 5.2v1c-5.8.3-11.4 1.8-16.5 4.5-7.6 3.8-16.2 10.6-22.3 23.4-3.5 7.5-5.7 15.6-6.7 23.8-1.2 9.7-1.4 19.5-.6 29.3-16.8 13.9 4.2 34.2 4.2 34.2 17.2 0 16.8-28.6 16.7-33.5h.1s0-.2-.1-.7c-1.2-8-1.6-16.1-1-24.2.4-6.4 1.8-12.6 4.1-18.5 1.8-4.6 4.6-8.8 8.3-12.2 3.9-3.5 8.7-5.8 13.9-6.7v4.7c0 4 3.3 7.3 7.3 7.3 3.1 0 5.9-2 6.9-5v38.4h104.6v-37.6c.2 1.5.9 2.8 1.9 3.9l.2.2c2.9 2.9 7.5 2.9 10.4 0 1.4-1.4 2.2-3.2 2.1-5.2v-6.7c5.1.9 9.8 3.2 13.6 6.6 3.6 3.4 6.5 7.5 8.3 12.2 2.3 5.9 3.7 12.2 4.1 18.6.6 8.1.2 16.2-1 24.2-.1.5-.1.7-.1.7h.1c-.2 4.9-.6 33.5 16.7 33.5.1-.1 21.1-20.4 4.3-34.3z" fill="url(#SVGID_2_)"/><linearGradient id="SVGID_3_" gradientUnits="userSpaceOnUse" x1="779.04" y1="387.339" x2="779.04" y2="475.229" gradientTransform="matrix(1 0 0 -1 0 796.319)"><stop offset="0" stop-color="gray" stop-opacity=".25"/><stop offset=".54" stop-color="gray" stop-opacity=".12"/><stop offset="1" stop-color="gray" stop-opacity=".1"/></linearGradient><path fill="url(#SVGID_3_)" d="M757.1 322v9.5h12.5v62.8H755V409h39.7v-14.7h-6.2v-62.8h14.6v-10.4h-46z"/><linearGradient id="SVGID_4_" gradientUnits="userSpaceOnUse" x1="830.31" y1="387.339" x2="830.31" y2="475.229" gradientTransform="matrix(1 0 0 -1 0 796.319)"><stop offset="0" stop-color="gray" stop-opacity=".25"/><stop offset=".54" stop-color="gray" stop-opacity=".12"/><stop offset="1" stop-color="gray" stop-opacity=".1"/></linearGradient><path fill="url(#SVGID_4_)" d="M807.3 322v9.5h18.8v62.8h-14.6V409h39.7v-14.7H845v-62.8h8.3v-10.4h-46z"/><path class="st6" d="M749 135.5h114.6c7.2 0 13 5.8 13 13v39.2c0 7.2-5.8 13-13 13H749c-7.2 0-13-5.8-13-13v-39.2c0-7.2 5.8-13 13-13z"/><path class="st7" d="M747.2 190.7h118.1v1.2H747.2z"/><path class="st8" d="M747.2 145.7h118.1v44.8H747.2z"/><circle class="st7" cx="774.7" cy="169" r="16.3"/><circle class="st9" cx="774.7" cy="168.1" r="16.3"/><circle class="st7" cx="837.8" cy="169" r="16.3"/><circle class="st9" cx="837.8" cy="168.1" r="16.3"/><path class="st6" d="M794 200.7h24.4V215H794z"/><path class="st6" d="M755.3 210.9h101.8v81.4H755.3zm96.8 81.4v8.1h-11.2v8.2h-69.3v-8.2h-11.2v-8.1z"/><path class="st8" d="M852.1 292.3v8.1h-11.2v8.2h-69.3v-8.2h-11.2v-8.1z"/><path class="st6" d="M753.3 308.6h105.9v10.2H753.3zm5.1 10.2h44.8V329h-44.8zm48.9 0h44.8V329h-44.8zM756.4 390h38.7v14.2h-38.7zm14.2-46.8V390h18.3v-61h-18.3zm55-14.2v61h18.3v-61zm-14.3 61H850v14.2h-38.7zm-55.6-161.8v24.9c-.4 3.9-3.8 6.8-7.7 6.5-3.6-.3-6.4-3.4-6.5-7v-24.4c0-3.9 3.2-7.1 7.1-7.1 1.9 0 3.7.8 5 2.1l.2.2c1.1 1.2 1.8 2.7 1.9 4.3v.5zm115.6 2v24.4c0 3.9-3.2 7.1-7.1 7.1-1.9 0-3.7-.8-5-2.1l-.2-.2c-1.2-1.3-1.9-3-1.9-4.8v-24.4c.1-3.9 3.5-7 7.4-6.9 3.7.2 6.7 3.2 6.8 6.9z"/><path class="st6" d="M741.5 229.2V248c-5 .9-9.7 3.1-13.5 6.5-3.5 3.3-6.3 7.3-8.1 11.8-2.3 5.8-3.6 11.8-4 18-.6 8.1-.2 16.2 1.1 24.2h-20.3c-.8-9.7-.7-19.5.5-29.2 1-8 3.2-15.8 6.5-23.1 5.9-12.4 14.3-19.1 21.7-22.7 5-2.6 10.5-4 16.1-4.3z"/><path class="st6" d="M700.7 341.2s-20.5-19.7-4.1-33.3h20.3s2.2 33.3-16.2 33.3z"/><path class="st8" d="M700.7 341.2s-20.5-19.7-4.1-33.3h20.3s2.2 33.3-16.2 33.3zm70.9-118.1h69.2V276h-69.2zm-1 105.9h18.3v14.2h-18.3zm0 26.4h18.3v18.3h-18.3zm0 28.5h18.3v6.1h-18.3zm55-54.9h18.3v14.2h-18.3zm0 26.4h18.3v18.3h-18.3zm0 28.5h18.3v6.1h-18.3zm-84.1-154.7V248c-5 .9-9.7 3.1-13.5 6.5l-2.5-21c4.9-2.5 10.4-4 16-4.3zm-21.6 37.2c-2.3 5.8-3.6 11.8-4 18l-18.7-5c1-8 3.2-15.8 6.5-23.1l16.2 10.1z"/><path class="st6" d="M871 229.2V248c5 .9 9.7 3.1 13.5 6.5 3.5 3.3 6.3 7.3 8.1 11.8 2.3 5.8 3.6 11.8 4 18 .6 8.1.2 16.2-1.1 24.2h20.4c.9-9.7.7-19.5-.5-29.2-1-8-3.2-15.8-6.5-23.1-5.9-12.4-14.3-19.1-21.7-22.7-5.1-2.6-10.6-4-16.2-4.3z"/><path class="st6" d="M911.8 341.2s20.5-19.7 4.1-33.3h-20.3s-2.2 33.3 16.2 33.3z"/><path class="st8" d="M911.8 341.2s20.5-19.7 4.1-33.3h-20.3s-2.2 33.3 16.2 33.3zm-40.8-112V248c5 .9 9.7 3.1 13.5 6.5l2.5-21c-4.9-2.5-10.4-4-16-4.3zm21.6 37.2c2.3 5.8 3.6 11.8 4 18l18.7-5c-1-8-3.2-15.8-6.5-23.1l-16.2 10.1z"/><path class="st7" d="M794 200.7h24.4v1.7H794zm65 24.7v34.1c-1.2-1.3-1.9-3-1.9-4.8v-24.5c0-1.8.6-3.5 1.9-4.8zm-103.3 2.2v25.5c-.1 1.6-.8 3.1-1.9 4.3v-34.2c1.1 1.3 1.8 2.8 1.9 4.4zm4.7 64.7H852v1.2h-91.6zm-2 26.5h44.8v.9h-44.8zm48.9 0h44.8v.9h-44.8z"/><path class="st6" d="M763.4 75.2h7v60.3h-7zm80.4 0h7v60.3h-7z"/><circle class="st7" cx="766.7" cy="75.7" r="8"/><circle class="st6" cx="766.7" cy="75.2" r="8"/><circle class="st7" cx="847.5" cy="75.7" r="8"/><circle class="st6" cx="847.5" cy="75.2" r="8"/><path class="st10" d="M598.9 259.9s23.3 45.6 4.3 70.6 1.7 93 1.7 93"/><path class="st11" d="M605.8 245.7c0 8.8-6.5 15.9-6.5 15.9s-6.5-7.1-6.5-15.9 6.5-15.9 6.5-15.9 6.5 7.1 6.5 15.9z"/><path class="st12" d="M611 259.9s-23.3 45.6-4.3 70.6-1.7 93-1.7 93"/><path class="st13" d="M604.1 245.7c0 8.8 6.5 15.9 6.5 15.9s6.5-7.1 6.5-15.9-6.5-15.9-6.5-15.9-6.5 7.1-6.5 15.9z"/><path class="st10" d="M620.4 259.9s23.3 45.6 4.3 70.6 1.7 93 1.7 93"/><path class="st11" d="M627.3 245.7c0 8.8-6.5 15.9-6.5 15.9s-6.5-7.1-6.5-15.9 6.4-15.9 6.4-15.9 6.6 7.1 6.6 15.9zm-3.6 36.6c-6.1 6.3-15.7 7-15.7 7s.3-9.6 6.4-16 15.7-7 15.7-7-.3 9.7-6.4 16zm.6 31.5c-6.1 6.3-15.7 7-15.7 7s.3-9.6 6.4-16 15.7-7 15.7-7-.3 9.7-6.4 16zm-33.1 17.3c5.8 6.6 5.6 16.3 5.6 16.3s-9.5-1.1-15.3-7.8-5.6-16.3-5.6-16.3 9.6 1.2 15.3 7.8zm5.4-67.1c7.3 4.9 9.7 14.2 9.7 14.2s-9.5 1.4-16.8-3.4-9.7-14.2-9.7-14.2 9.4-1.5 16.8 3.4z"/><path class="st12" d="M632.5 259.9s-23.3 45.6-4.3 70.6-1.7 93-1.7 93"/><path class="st13" d="M625.6 245.7c0 8.8 6.5 15.9 6.5 15.9s6.5-7.1 6.5-15.9-6.5-15.9-6.5-15.9-6.5 7.1-6.5 15.9zm1.9 37.3c-6.2 6.3-6.6 15.9-6.6 15.9s9.6-.5 15.8-6.8 6.6-15.9 6.6-15.9-9.7.5-15.8 6.8zm12.1 43.6c-6.2 6.3-6.6 15.9-6.6 15.9s9.6-.5 15.8-6.8 6.6-15.9 6.6-15.9-9.6.5-15.8 6.8z"/><path class="st12" d="M621.8 317s14-22.1 33.7-22.5"/><path class="st10" d="M610.9 303.7s-14-22.1-33.7-22.5"/><path class="st12" d="M609 335.2s14-22.1 33.7-22.5"/><circle class="st13" cx="654.8" cy="294.3" r="3.6"/><circle class="st11" cx="577.5" cy="281.3" r="3.6"/><path class="st10" d="M619.3 342.4s-14-22.1-33.7-22.5"/><circle class="st11" cx="586" cy="320" r="3.6"/><circle class="st13" cx="642.9" cy="312.8" r="3.6"/><path class="st14" d="M696.7 397.1s-33.7-6.8-42.7-15.7-49.5-24.7-54-13.5-60.7 49.5-22.5 56.2 90 9 101.2 4.5 18-31.5 18-31.5z"/><path class="st15" d="M577.5 419.9c38.2 6.8 90 9 101.2 4.5 8.6-3.4 14.5-19.9 16.9-27.5l1.1.2s-6.8 27-18 31.5-63 2.2-101.2-4.5c-11-2-14.2-6.5-13-12.3 1 3.7 4.8 6.6 13 8.1z"/><path class="st11" d="M1061 268s8.1 10.6-3.7 26.5-21.6 29.4-17.6 39.4c0 0 17.8-29.6 32.3-30s5-18.1-11-35.9z"/><path class="st7" d="M1061 268c.7 1 1.3 2.1 1.7 3.3 14.2 16.6 21.7 32.1 8.1 32.5-12.7.4-27.9 23-31.5 28.8.1.4.3.9.4 1.3 0 0 17.8-29.6 32.3-30s5-18.1-11-35.9z"/><path class="st13" d="M1076.1 281.5c0 3.7-.4 6.7-.9 6.7s-.9-3-.9-6.7.5-2 1-2 .8-1.7.8 2z"/><path class="st13" d="M1081.2 285.9c-3.3 1.8-6.1 2.9-6.4 2.4s2.2-2.3 5.5-4 2-.5 2.2 0 2-.2-1.3 1.6z"/><path class="st11" d="M1018.3 268s-8.1 10.6 3.7 26.5c11.8 16 21.5 29.4 17.6 39.4 0 0-17.8-29.6-32.3-30s-4.9-18.1 11-35.9z"/><path class="st7" d="M1018.3 268c-.7 1-1.3 2.1-1.7 3.3-14.2 16.6-21.7 32.1-8.1 32.5 12.7.4 27.9 23 31.5 28.8-.1.4-.3.9-.4 1.3 0 0-17.8-29.6-32.3-30s-4.9-18.1 11-35.9z"/><path class="st13" d="M1003.3 281.5c0 3.7.4 6.7.9 6.7s.9-3 .9-6.7-.5-2-1-2-.8-1.7-.8 2z"/><path class="st13" d="M998.2 285.9c3.3 1.8 6.1 2.9 6.4 2.4s-2.2-2.3-5.5-4-2-.5-2.2 0-2-.2 1.3 1.6z"/><path class="st14" d="M1005.9 332.5s22.6-.7 29.4-5.5 34.8-10.6 36.4-2.9 34 38.7 8.4 38.9-59.3-4-66.1-8.1-8.1-22.4-8.1-22.4z"/><path class="st15" d="M1080.7 360.3c-25.5.2-59.3-4-66.1-8.1-5.2-3.1-7.2-14.5-7.9-19.7h-.8s1.4 18.2 8.2 22.4 40.6 8.3 66.1 8.1c7.4-.1 9.9-2.7 9.8-6.6-1 2.4-3.8 3.9-9.3 3.9z"/><path transform="rotate(-17.35 871.03 122.11)" class="st6" d="M834 117.6h74v9h-74z"/><path class="st14" d="M936.4 441.1s-38.7-7.7-49-18.1-56.8-28.4-62-15.5-69.7 56.8-25.8 64.5 103.3 10.3 116.2 5.2 20.6-36.1 20.6-36.1z"/><path class="st15" d="M799.6 467.3c43.9 7.7 103.3 10.3 116.2 5.2 9.8-3.9 16.7-22.8 19.4-31.6l1.3.3s-7.7 31-20.7 36.1-72.3 2.6-116.2-5.2c-12.7-2.2-16.3-7.5-14.9-14.1 1.1 4.3 5.5 7.6 14.9 9.3z"/><linearGradient id="SVGID_5_" gradientUnits="userSpaceOnUse" x1="969.134" y1="227.949" x2="969.134" y2="647.036" gradientTransform="matrix(1 0 0 -1 -37.66 730.949)"><stop offset="0" stop-color="gray" stop-opacity=".25"/><stop offset=".54" stop-color="gray" stop-opacity=".12"/><stop offset="1" stop-color="gray" stop-opacity=".1"/></linearGradient><path d="M1022.4 103.5c-.7-1.7-1.8-3.2-3.2-4.4-10.4-9.5-27.2-6.6-40.1-12.4-3-1.3-6-3.2-9.2-2.7-4.5.7-8.7 5.8-12.6 3.6l.3.9-.3-.1 2.9 8.8c1.1 3.4 2.3 6.9 4.4 9.7-10.5 9.2-11.6 25.2-2.4 35.7 2.4 2.7 5.3 4.9 8.6 6.4l.4.9.4.2c.9 2 1.5 4 1.9 6.1-3.3.5-9.2 4.2-14.9 9.6l-11.5-.4c-7.4-.2-14.6-2.7-20.6-7l-34.3-24.6c-2.4.2-4.7 1.3-6.6 2.9-4.3-4.4-7.9-9.1-7.6-11.8 0 0-16-29.8-21.7-14.9s10.9 30.6 10.9 30.6l10.6 13.7c-.4 2.4-.7 4.8-.8 7.3 13 14.9 58.7 28.4 58.7 28.4l7.1.3v.4c-.4 1.9-.7 3.8-.6 5.7v1.5c.4 23.8 3.6 96.6 3.6 96.6.6-.3 1.3-.5 2-.8l-.5 6.5s-30.4 4.3-52.9 12.8-23.2 18.5-23.2 18.5v87.8c-6.4 3.3-16.5 7.6-21.7 5.3-5.6-2.5-8.7-.4-9.3 1.8-.1.4-.1.9 0 1.3 0 .2.1.4.2.6.1.2.2.4.4.5 2.2 2.1 49.3 20.6 60.2 17.8.3-.1.7-.2 1-.3l.3-.1.6-.3c.2-.1.2-.1.3-.2s.3-.2.5-.3.2-.2.3-.3.3-.2.4-.4.2-.2.3-.3.2-.3.4-.4.2-.2.2-.3.2-.3.3-.5l.2-.4c.1-.2.2-.4.3-.5s.1-.2.2-.4.2-.4.2-.6l.1-.4c.1-.2.2-.4.2-.7l.1-.4c.1-.2.1-.5.2-.7l.1-.3c.1-.3.1-.5.2-.8v-.3c0-.3.1-.6.1-.9v-.2c0-.3.1-.6.1-.9v-.7c0-.3 0-.7.1-1v-1.3c0-4.2-.5-8.5-1.4-12.6l2.6-74.8c14.3.2 28.6-.3 42.8-1.5l1.6 35.7s0 23.5 8 34.1c6.8 9.1 14.7 49.5 16.8 60.9-2.9 5.6-8.5 12.5-18.3 12.3 0 0-18.4-1.6-17.3 3.5 0 .1.1.3.1.4.1.1.1.3.2.4.1.1.2.3.2.4l.1.1c.1.2.2.3.4.5l.4.4.1.1.5.5c9.4 8.5 64.5 10 64.5 10v-.4c0-2.5-.4-15.4-3.7-25.2h.8s-8-71.8-14.5-80.3c0 0-1.7-37.8 2.2-61.6l.7-.3c18.3-6.8 19.6-23.6 17.7-36 3.5 1.1 5.5 1.9 5.5 1.9s-.1-.5-.2-1.5l.2.1s-.3-2.3-.9-5.8c-1.3-9.7-3.8-26.6-6.5-34.6-.4-1.8-.8-3.3-1.2-4.4-1.6-4.8-2.6-9.7-3.2-14.8-.7-6.5-1.1-13-1.1-19.6.1-8.7.7-17.5 2-26.1 1.1-7.6 2.1-16.1 2-22.1.1-2.1-.1-4.2-.4-6.2-1-4.4-5.2-7.3-9.7-9.1l-.9-.3c.1-1.7.2-3.6.4-5.6 1.1.7 2.4 1 3.7.8 1.9-.4 3.3-2 4.5-3.5 6.4-7.9 13-16.1 15.5-25.9 1-4.4 1.4-8.9 1.4-13.3v-.7c-.2-1.9-.4-3.5-.9-5.1z" fill="url(#SVGID_5_)"/><path class="st17" d="M963.9 141.9s9.7 14.6 7.7 21.6 22.9 2.8 22.9 2.8.7-27.1 5.6-33.4-36.2 9-36.2 9zm-64.3 9.4s-20.2-16.7-19.5-22.9c0 0-15.3-29.2-20.9-14.6s10.4 29.9 10.4 29.9l19.5 25.7 10.5-18.1z"/><path class="st18" d="M879.1 413.1s-18.8 11.8-26.4 8.4-10.4 2.1-8.3 4.2 47.3 20.2 57.7 17.4 5.1-25.5 5.1-25.5l-28.1-4.5zm99.4 50.7s-4.5 19.1-20.2 18.8c0 0-23.6-2.1-14.6 6.3s61.9 9.7 61.9 9.7 0-28.5-9.7-34.8-17.4 0-17.4 0z"/><path class="st19" d="M950 329l2.1 48.7s0 22.9 7.7 33.4 16.7 62.6 16.7 62.6h26.4s-7.7-70.2-13.9-78.6c0 0-2.8-61.9 7-75.8l-46 9.7z"/><path class="st7" d="M950 329l2.1 48.7s0 22.9 7.7 33.4 16.7 62.6 16.7 62.6h26.4s-7.7-70.2-13.9-78.6c0 0-2.8-61.9 7-75.8l-46 9.7z"/><path class="st19" d="M1005 285.2s16 38.2-13.2 49.4-82 9.7-82 9.7l-2.8 80.6s-32.7 4.2-33.4-6.3v-88.3s.7-9.7 22.2-18.1 50.7-12.5 50.7-12.5l1.4-18.1 57.1 3.6z"/><path class="st7" d="M979.3 159.2c5.6-.6 11.2.2 16.3 2.3 4.3 1.8 8.4 4.6 9.3 8.9 1.1 5.1-.1 16.6-1.5 26.4-2.2 15.3-2.5 30.8-.8 46.1.7 6.4 1.7 12 3.1 14.4 4.2 7.6 8.3 43.8 8.3 43.8s-45.9-17.4-68.8-7c0 0-3.1-71.3-3.5-94.5-.3-18 22.6-38.6 30.2-39.3 4.5-.3 3-.6 7.4-1.1z"/><path class="st20" d="M979.3 157.8c5.6-.6 11.2.2 16.3 2.3 4.3 1.8 8.4 4.6 9.3 8.9 1.1 5.1-.1 16.6-1.5 26.4-2.2 15.3-2.5 30.8-.8 46.1.5 4.9 1.6 9.7 3.1 14.4 3.1 9.4 8.3 43.8 8.3 43.8s-45.9-17.4-68.8-7c0 0-3.1-71.3-3.5-94.5-.3-18 22.6-38.6 30.2-39.3 4.5-.3 3-.6 7.4-1.1z"/><path class="st7" d="M991.7 196.2l-49.4-2.8s-3.1-24.2 4-23.9l48.8 1.7c.1-.1 10.6 12.5-3.4 25z"/><path class="st20" d="M991.7 194.8l-56.3-2.8s-43.8-13.2-56.3-27.8c0 0 .7-25.7 14.6-27.1l32.9 24.1c5.7 4.2 12.6 6.6 19.7 6.9l48.8 1.7c.1 0 10.6 12.5-3.4 25z"/><path class="st7" d="M994.2 145.1c.8-6.6 3.8-8.8 5.9-11.5 4.9-6.3-36.2 9-36.2 9 2.1 3.3 4 6.7 5.5 10.2 3.3 1.5 6.8 2.3 10.4 2.3 6.2.1 10.1-6.5 14.4-10z"/><circle class="st17" cx="979.9" cy="129.4" r="25"/><path class="st7" d="M964.1 111.9c-2.7-2.9-4-6.8-5.2-10.6l-2.8-8.6c3.8 2.2 7.8-2.8 12.1-3.5 3.1-.5 6 1.3 8.9 2.6 12.4 5.7 28.5 2.9 38.5 12.1 1.4 1.2 2.4 2.7 3.1 4.3.5 1.6.7 3.2.6 4.9.1 4.4-.4 8.8-1.3 13.1-2.4 9.6-8.7 17.6-14.8 25.4-1.2 1.5-2.5 3-4.3 3.4-3.6.8-6.3-3.1-7.7-6.5-1.8-4.5-3.2-9.2-4-14-.2-2-.8-4-1.7-5.8-2.2-3.8-7.5-7.4-10.7-10.4s-7.7-3.2-10.7-6.4z"/><path class="st21" d="M964.1 111.2c-2.7-2.9-4-6.8-5.2-10.6l-2.8-8.6c3.8 2.2 7.8-2.8 12.1-3.5 3.1-.5 6 1.3 8.9 2.6 12.4 5.7 28.5 2.9 38.5 12.1 1.4 1.2 2.4 2.7 3.1 4.3.5 1.6.7 3.2.6 4.9.1 4.4-.4 8.8-1.3 13.1-2.4 9.6-8.7 17.6-14.8 25.4-1.2 1.5-2.5 3-4.3 3.4-3.6.8-6.3-3.1-7.7-6.5-1.8-4.5-3.2-9.2-4-14-.2-2-.8-4-1.7-5.9-2.2-3.8-7.5-7.4-10.7-10.4s-7.7-3.1-10.7-6.3z"/><ellipse class="st17" cx="986.5" cy="132.2" rx="2.1" ry="4.5"/><path class="st7" d="M999 252.8s-1.4 4.2-8.3 3.5c-6.9-.7-27.1-2.1-27.1 0"/><path d="M943.8 488.1c-.9-.7-1.6-1.8-2-2.9-.2.9.4 2.1 2 3.6 9 8.3 61.9 9.7 61.9 9.7v-.7c-.4.1-52.9-1.3-61.9-9.7zm-41.7-46.5c-10.4 2.8-55.6-15.3-57.7-17.4-.3-.3-.5-.6-.6-1-.2.8 0 1.8.6 2.4 2.1 2.1 47.3 20.2 57.7 17.4 5.4-1.4 6.6-8.2 6.5-14.4-.2 5.8-1.6 11.6-6.5 13z" opacity=".5" fill="#fff"/><path class="st23" d="M735.1 159s-60.5-17.9-64.5 33.1 16 135 0 162-73.1 66-43 69.5 45 8.5 36 26.5-56 35-46 48 15 29 5 45-45 26-39 37 28 17 17 29-42.9 39.3-30.4 39.2"/><linearGradient id="SVGID_6_" gradientUnits="userSpaceOnUse" x1="355.657" y1="92.499" x2="355.657" y2="485.159" gradientTransform="matrix(1 0 0 -1 -37.66 730.949)"><stop offset="0" stop-color="gray" stop-opacity=".25"/><stop offset=".54" stop-color="gray" stop-opacity=".12"/><stop offset="1" stop-color="gray" stop-opacity=".1"/></linearGradient><path d="M505.5 494.9c-2.4-13.5-3.9-27.2-4.5-41-1-23.3-16.4-43.4-38.7-50.3-4-1.2-8.3-2.4-13.1-3.4-42.1-9-54.9-1.1-56.4-.1-1.2-2.3-2.3-4.6-3.2-7-.1-.2-.1-.5-.2-.7 8.3-8.9 13.4-20.3 14.4-32.5 7-7.1 11.1-15.7 11.1-25 0-8-3-15.4-8.4-21.9v-12.5c0-30.2-24.5-54.7-54.7-54.7h-4.4c-30.2 0-54.7 24.5-54.7 54.7v13.6c-4.8 5.9-7.5 13.3-7.6 20.9 0 9.1 3.9 17.5 10.7 24.5.9 12.6 6.2 24.5 15 33.5.3 2 .6 4.3.9 6.6l-75.4 15.9s-29.1 1.2-47.8 39.8C172.8 488 141.3 572.1 132 597.1c-1.7 4.5-2.6 7.1-2.6 7.1s.3-.3.9-.8l-.9 2.4s.5-.5 1.3-1.2c-1.3 10.5-1.5 28.4 12.2 30.7 11.5 1.9 41.1 2.7 63.5 3h1.6c14.8.2 26.1.2 26.1.2v-.2h240.7v-2.5c0-2.2-.5-4.5-1.3-6.5l.3-.4c1.3 1.7 2.1 3.7 2.5 5.8 0 .2-.1.4-.1.6l.1-.4c.1.7 0 1.3-.1 2 0 0 30.9-79.5 30.5-127 0-5-.3-10.1-1.2-15zm-192.4-84.6c-.4-2.3-.7-4.6-.8-6.9v-.1c.3 2.3.5 4.7.8 7zm-93.6 170.9v19l-11.9 2.5 11.9-21.5z" fill="url(#SVGID_6_)"/><path class="st20" d="M348.5 253.4c30.2 0 54.7 24.5 54.7 54.7v23.3H293.8v-23.3c0-30.2 24.5-54.7 54.7-54.7z"/><ellipse class="st20" cx="348.9" cy="339.1" rx="62.4" ry="42.9"/><path class="st17" d="M308.9 380.6s13 68.1 0 86.5 39.8 25.6 39.8 25.6l54.7-19.9 7.6-49s-33.3-18.8-26.4-56.6l-75.7 13.4zm161.4 229.5s3.4 14.9-15.3 17.6c-11.1 1.6-22.3 1.5-33.4-.4l-4.1-37.5h43.6l9.2 20.3zm-331-19.1s-8.3 33.6 10.5 36.7 87.6 3 87.6 3V591l-31.2 6.7-29.3-28.1-37.6 21.4z"/><path class="st7" d="M312.9 402.6l-73.3 15.5s-27.9 1.1-45.9 38.3-57 143.1-57 143.1 33.3-33.7 72.3 2.3l26-47-5.7 74.6h201.6v-35.2s42.1 22.6 39 35.2c0 0 36-92.8 28.3-134.9-2.3-13-3.8-26.2-4.3-39.5-.9-22.3-15.8-41.7-37.2-48.3-3.8-1.2-8-2.3-12.6-3.2-43.2-9.2-54.3 0-54.3 0s-8.4 27.2-8.2 39.6c.2 15.9-22.6 26.4-22.6 26.4s-33.7-8-35.2-14.5-13.6-44.7-10.9-52.4z"/><path class="st19" d="M312.9 401.1l-73.3 15.5s-27.9 1.1-45.9 38.3-57 143.1-57 143.1 33.3-33.7 72.3 2.3l26-47-5.7 74.6h201.6v-35.2s42.1 22.6 39 35.2c0 0 36-92.8 28.3-134.9-2.3-13-3.8-26.2-4.3-39.5-.9-22.3-15.8-41.7-37.2-48.3-3.8-1.2-8-2.3-12.6-3.2-43.2-9.2-54.3 0-54.3 0s-8.4 27.2-8.2 39.6c.2 15.9-22.6 26.4-22.6 26.4s-33.7-8-35.2-14.5-13.6-44.8-10.9-52.4z"/><path class="st7" d="M387.8 397.8c-3.1-8.7-3.8-18.1-2-27.2L310 384s1.1 5.7 2.3 14.3c19.9 20.7 52.8 21.3 73.5 1.4.7-.6 1.3-1.3 2-1.9z"/><path class="st17" d="M400.7 358.8c.3 28.7-22.7 52.3-51.4 52.6S297 388.8 296.7 360v-1.3c0-19.9 11.3-38 29.2-46.8 1.6-.8 3.2-1.4 4.8-2.1 8.6-3.1 17.8-4 26.8-2.5 23.7 4 41.6 23.8 43.1 47.9.1 1.3.1 2.4.1 3.6z"/><g opacity=".1"><path d="M330.5 311.2c-1.6.6-3.2 1.3-4.7 2.1-17.9 8.7-29.2 26.9-29.2 46.8v1.3c1.6 0 3.2-.4 4.7-1.1 12.7-5.9 20.3-24 23.3-36.7 1.1-4.7 2.1-9.8 5.9-12.4z"/><path d="M370.3 312.7c-4.1-1.9-8.5-3.2-12.9-4 3.7.8 6.9 2.9 9.3 5.8 1.2 1.6 2.1 3.3 2.8 5.1-14-6.1-30-5.8-43.8.9 3.3 7.2 13.4 11.1 20.1 13.7 7.4 2.9 14.9 5.5 22.5 7.8l-6.7-5.4 15.1 2.4c.2-3-.2-6-1-8.9 2.9 2.3 6.7 3.1 9.9 5.1 5.9 3.7 8.3 10.9 11.5 17 .7 1.7 1.9 3.2 3.4 4.3-1.2-19-12.8-35.9-30.2-43.8z"/></g><path class="st21" d="M330.5 310c-1.6.6-3.2 1.3-4.7 2.1-17.8 8.7-29.1 26.8-29.2 46.7v1.3c1.6 0 3.2-.4 4.7-1.1 12.7-5.9 20.3-24 23.3-36.7 1.1-4.5 2.1-9.6 5.9-12.3z"/><path class="st21" d="M370.3 311.5c-4.1-1.9-8.5-3.2-12.9-4 3.7.8 6.9 2.9 9.3 5.8 1.2 1.6 2.1 3.3 2.8 5.1-14-6.1-30-5.8-43.8.9 3.3 7.2 13.4 11.1 20.1 13.7 7.4 2.9 14.9 5.5 22.5 7.8l-6.7-5.4 15.1 2.4c.2-3-.2-6-1-8.9 2.9 2.3 6.7 3.1 9.9 5.1 5.9 3.7 8.3 10.9 11.5 17 .7 1.7 1.9 3.2 3.4 4.3-1.2-19-12.8-35.8-30.2-43.8z"/><path class="st7" d="M290.7 350.2s53.6-66.6 115.5 0l-5.4-14.9s-29.1-42.5-49.7-33.3-40.9 15.7-40.9 15.7l-19.5 32.5z"/><path class="st20" d="M290.7 349.1s53.6-66.6 115.5 0l-5.4-14.9s-29.1-42.5-49.7-33.3-40.9 15.7-40.9 15.7l-19.5 32.5z"/><path class="st7" d="M246.7 492.5s-11.5 30.6 4.6 58.1-14.1 39-14.1 39M432.6 465s19.9 25.2 6.9 47.8c-13 22.6-12.2 76.9-12.2 76.9"/><path class="st18" d="M229.1 612.3h221.1c10.1 0 18.4 8.2 18.4 18.4H210.8c0-10.2 8.2-18.4 18.3-18.4z"/><path class="st18" d="M262.4 486H417c21.5 0 39 17.5 39 39v91.5H223.4V525c0-21.5 17.4-39 39-39z"/><circle cx="339.5" cy="557" r="13.8" fill="#fff"/><path d="M293.8 319s52.6-52.6 109.4-1" opacity=".1" fill="none" stroke="#000" stroke-miterlimit="10"/><path class="st28" d="M411.2 315.7h5.3v30h-5.3z"/><path class="st13" d="M404.1 335.1c10.1 0 18.2 8.2 18.2 18.2v1.2c0 10.1-8.2 18.2-18.2 18.2v-37.6z"/><path class="st28" d="M404.7 333.3c2.3 0 4.1 1.8 4.1 4.1v32.9c0 2.3-1.8 4.1-4.1 4.1s-4.1-1.8-4.1-4.1v-32.9c0-2.3 1.9-4.1 4.1-4.1zm-124.8-17h5.3v30h-5.3z"/><path class="st13" d="M292.3 373.2c-10.1 0-18.2-8.2-18.2-18.2v-1.2c0-10.1 8.2-18.2 18.2-18.2v37.6z"/><path class="st28" d="M291.7 375c-2.3 0-4.1-1.8-4.1-4.1V338c0-2.3 1.8-4.1 4.1-4.1s4.1 1.8 4.1 4.1v32.9c0 2.3-1.9 4.1-4.1 4.1z"/><path class="st13" d="M410.6 283.6c-7.2-14.9-22.8-32.9-56.4-34.3h-.4l-11.9.6v.1c-33.4 1.5-48.9 19.5-56 34.3-4.7 10.1-7.3 21-7.4 32.1l4.1-.1 4.1-.1c.2-9.9 2.4-19.7 6.6-28.6 9.1-18.6 25.7-28.5 49.6-29.4l10.5-.6c23.8.9 40.5 10.8 49.6 29.4 4.2 9 6.5 18.7 6.7 28.6l4.1.1 4.1.1c-.1-11.1-2.6-22.1-7.3-32.2z"/><path class="st29" d="M37.6 630.9h560.8v150.6H37.6z"/><path class="st7" d="M37.6 641h560.8v19.5H37.6z"/><path class="st29" d="M0 628.7h636v19.5H0z"/><path class="st23" d="M435.5 580.1s24 44 84 32 31 111 31 111-9.8 58.7-2.9 58.3"/></svg>